<?xml version="1.0" encoding="utf-8"?>
<!-- Generator: Adobe Illustrator 19.1.0, SVG Export Plug-In . SVG Version: 6.00 Build 0)  -->
<svg version="1.1" id="Layer_1" xmlns="http://www.w3.org/2000/svg" xmlns:xlink="http://www.w3.org/1999/xlink" x="0px" y="0px"
	 viewBox="-228 664 383 130" style="enable-background:new -228 664 383 130;" xml:space="preserve">
<style type="text/css">
	.st0{fill:#0033A0;}
</style>
<path id="XMLID_5_" class="st0" d="M-45,712c-9.4,0-17,7.6-17,17s7.6,17,17,17s17-7.6,17-17S-35.6,712-45,712z M-62,753v9h-18v-98
	h18v41c0,0,6.4-10,22-10c16.5,0,30,15.3,30,34s-13.5,34-30,34C-55.3,763-62,753-62,753z"/>
<polygon id="XMLID_14_" class="st0" points="110.2,758.1 84,696 102.7,696 119.5,738 136.3,696 155,696 114.2,794 95.6,794 "/>
<path id="XMLID_11_" class="st0" d="M-209,711h18c8.3,0,15-6.7,15-15s-6.7-15-15-15h-18V711z M-202.5,728h-6.5v34h-19v-98h40
	c17.6,0,32,14.4,32,32c0,14.8-10.1,27.6-24.5,31.1l-1.4,0.3l24.3,34.6h-22.9L-202.5,728z"/>
<path id="XMLID_8_" class="st0" d="M-122,710c-12.6,0-15.6,12-15.6,12h31.1C-106.4,722-109.4,710-122,710z M-156,729
	c0-20,14-34,34-34s34,14,34,34c0,1.7-0.1,3.4-0.3,5H-138v1c0,7.2,7.2,13,16,13c6,0,12.3-2.7,15.6-6.7l13.5,9
	c-6.4,8.2-16.7,12.7-29.1,12.7C-142,763-156,749-156,729z"/>
<rect id="XMLID_4_" x="-2" y="696" class="st0" width="18" height="66"/>
<rect id="XMLID_3_" x="28" y="680" class="st0" width="18" height="82"/>
<rect id="XMLID_17_" x="58" y="664" class="st0" width="18" height="98"/>
</svg>
