<?xml version="1.0" encoding="utf-8"?>
<!-- Generator: Adobe Illustrator 19.1.0, SVG Export Plug-In . SVG Version: 6.00 Build 0)  -->
<svg version="1.1" id="Layer_1" xmlns="http://www.w3.org/2000/svg" xmlns:xlink="http://www.w3.org/1999/xlink" x="0px" y="0px"
	 viewBox="303 -159 383 130" style="enable-background:new 303 -159 383 130;" xml:space="preserve">
<style type="text/css">
	.st0{fill:#FFFFFF;}
</style>
<path id="XMLID_53_" class="st0" d="M486-111c-9.4,0-17,7.6-17,17s7.6,17,17,17s17-7.6,17-17S495.4-111,486-111z M469-70v9h-18v-98
	h18v41c0,0,6.4-10,22-10c16.5,0,30,15.3,30,34s-13.5,34-30,34C475.7-60,469-70,469-70z"/>
<polygon id="XMLID_52_" class="st0" points="641.2,-64.9 615,-127 633.7,-127 650.5,-85 667.3,-127 686,-127 645.2,-29 626.6,-29 
	"/>
<path id="XMLID_49_" class="st0" d="M322-112h18c8.3,0,15-6.7,15-15s-6.7-15-15-15h-18V-112z M328.5-95H322v34h-19v-98h40
	c17.6,0,32,14.4,32,32c0,14.8-10.1,27.6-24.5,31.1l-1.4,0.3l24.3,34.5h-22.9L328.5-95z"/>
<path id="XMLID_46_" class="st0" d="M409-113c-12.6,0-15.6,12-15.6,12h31.1C424.6-101,421.6-113,409-113z M375-94c0-20,14-34,34-34
	s34,14,34,34c0,1.7-0.1,3.4-0.3,5H393v1c0,7.2,7.2,13,16,13c6,0,12.3-2.7,15.6-6.7l13.5,9C431.7-64.5,421.4-60,409-60
	C389-60,375-74,375-94z"/>
<rect id="XMLID_45_" x="529" y="-127" class="st0" width="18" height="66"/>
<rect id="XMLID_44_" x="559" y="-143" class="st0" width="18" height="82"/>
<rect id="XMLID_32_" x="589" y="-159" class="st0" width="18" height="98"/>
</svg>
